<svg width="15" height="15" viewBox="0 0 15 15" fill="none" xmlns="http://www.w3.org/2000/svg">
<path d="M0.625012 4.0625L0.625012 1.56249C0.625012 0.699549 1.32456 -5.70453e-07 2.1875 -5.32733e-07L4.68751 -4.23453e-07C5.57034 0.00251914 6.41655 0.353085 7.04251 0.975613L13.0337 6.96687C13.1579 7.08678 13.1613 7.28459 13.0414 7.40875C12.9215 7.53291 12.7237 7.53634 12.5995 7.41643C12.5969 7.41391 12.5944 7.41136 12.5919 7.40875L6.60062 1.4175C6.09212 0.911775 5.40467 0.62701 4.68751 0.624989L2.18753 0.624988C1.66977 0.624988 1.25003 1.04472 1.25003 1.56249L1.25003 4.06247C1.24804 4.78045 1.53342 5.46933 2.04254 5.97558L9.87065 13.8037C10.6326 14.5652 11.8675 14.5652 12.6294 13.8037L13.1788 13.2543C13.9145 12.4819 13.9145 11.268 13.1788 10.4956L6.15874 3.47563C5.93386 3.25186 5.62976 3.12585 5.3125 3.125L4.0625 3.125C3.88991 3.125 3.74999 3.26492 3.74999 3.43751L3.74999 4.68749C3.75089 5.00472 3.8769 5.30882 4.10061 5.53373L9.28371 10.7168C9.40785 10.8367 9.4113 11.0346 9.29139 11.1587C9.17148 11.2828 8.97367 11.2863 8.84951 11.1664C8.8469 11.1639 8.84435 11.1613 8.84183 11.1587L3.65876 5.97561C3.31818 5.63328 3.12637 5.17039 3.125 4.68749L3.125 3.43748C3.125 2.91972 3.54473 2.49998 4.0625 2.49998L5.3125 2.49998C5.79543 2.50122 6.25835 2.69302 6.60062 3.03374L13.6206 10.0537C14.6265 11.0596 14.6265 12.6904 13.6206 13.6962C13.6206 13.6962 13.6206 13.6962 13.6206 13.6962L13.0712 14.2456C12.0654 15.2515 10.4346 15.2515 9.42876 14.2456C9.42876 14.2456 9.42876 14.2456 9.42873 14.2456L1.60063 6.4175C0.974318 5.79406 0.62305 4.94621 0.625012 4.0625Z" fill="black"/>
</svg>
